@startuml
'https://plantuml.com/class-diagram

abstract class AbstractList
abstract AbstractCollection
interface List
interface Collection

List <|-- AbstractList
Collection <|-- AbstractCollection

'泛化表示： <|-
Collection <|- List
AbstractCollection <|- AbstractList
AbstractList <|-- ArrayList


class ArrayList {
Object[] elementData
size()
}

/'枚举类型'/
enum TimeUnit {
DAYS
HOURS
MINUTES
}


@enduml